<svg xmlns="http://www.w3.org/2000/svg" width="512" height="512" viewBox="0 0 256 256" fill="none">
  <rect x="8" y="8" width="240" height="240" rx="56" fill="#E8F7EE"/>
  <defs>
    <clipPath id="vrShieldClipAppIcon">
      <path d="M128 28C151 44 177 51 208 58V124C208 171 179 210 128 230C77 210 48 171 48 124V58C79 51 105 44 128 28Z"/>
    </clipPath>
  </defs>
  <g clip-path="url(#vrShieldClipAppIcon)">
    <rect x="0" y="0" width="128" height="256" fill="#0B7A3F"/>
    <rect x="128" y="0" width="128" height="256" fill="#16A34A"/>
  </g>
  <path d="M128 28C151 44 177 51 208 58V124C208 171 179 210 128 230C77 210 48 171 48 124V58C79 51 105 44 128 28Z" stroke="#0F5132" stroke-width="8"/>
  <path d="M84 139L113 110L137 133L192 78" stroke="#FFFFFF" stroke-width="20" stroke-linecap="round" stroke-linejoin="round"/>
</svg>