<?xml version="1.0" encoding="UTF-8"?>
<svg version="1.1" xmlns="http://www.w3.org/2000/svg" width="1024" height="1024">
<circle cx="512" cy="512" r="512" fill="#EEF7FF"/>
<path d="M0 0 C1.06340103 0.00211487 2.12680206 0.00422974 3.22242737 0.00640869 C5.82652066 0.01189349 8.43058761 0.01957829 11.03466797 0.02929688 C11.5976698 15.02263243 12.01962837 30.0151463 12.2781601 45.0168314 C12.40145962 51.98480395 12.56914304 58.94618 12.84521484 65.90991211 C13.11193932 72.64112931 13.249737 79.36411987 13.3117218 86.10084343 C13.35583052 88.66012947 13.44199631 91.2190701 13.57218933 93.77542305 C14.36585156 110.01591395 14.36585156 110.01591395 11.03466797 117.02929688 C5.24387727 123.2956219 -2.32792245 126.89248089 -9.94223022 130.49056816 C-13.85374196 132.48148868 -17.32341915 134.89975587 -20.85832977 137.48876286 C-23.85232819 139.67782383 -26.98908729 141.59843766 -30.15283203 143.52929688 C-36.86698851 147.67689973 -43.4888657 151.95486608 -50.09033203 156.27929688 C-60.41182762 163.03569578 -70.79875931 169.68263235 -81.21826172 176.28662109 C-84.93735326 178.64592392 -88.65170594 181.01263556 -92.36621094 183.37915039 C-102.44177841 189.7975358 -112.53432143 196.18856679 -122.63867188 202.56152344 C-125.78737342 204.54788164 -128.93498447 206.53596402 -132.08251953 208.52416992 C-133.67228588 209.52836147 -135.26212976 210.5324303 -136.85205078 211.53637695 C-140.74898944 213.99711804 -144.64515089 216.45907086 -148.53955078 218.92382812 C-160.29007249 226.35803568 -172.07620915 233.73436814 -183.87158203 241.09716797 C-186.94552138 243.0169246 -190.01815079 244.93875946 -193.09033203 246.86132812 C-195.1111493 248.12567672 -197.13198251 249.38999983 -199.15283203 250.65429688 C-200.13783691 251.27071045 -201.1228418 251.88712402 -202.13769531 252.5222168 C-207.04758394 255.59180823 -211.96419315 258.64968555 -216.89501953 261.68554688 C-217.84352783 262.26997559 -218.79203613 262.8544043 -219.76928711 263.45654297 C-221.54638747 264.55026417 -223.32477386 265.64189994 -225.10473633 266.73095703 C-225.90564697 267.2238623 -226.70655762 267.71676758 -227.53173828 268.22460938 C-228.2885791 268.6902832 -229.04541992 269.15595703 -229.82519531 269.63574219 C-231.89151076 270.98122799 -233.802097 272.44017966 -235.74267578 273.95898438 C-238.96533203 276.02929688 -238.96533203 276.02929688 -241.17041016 275.87036133 C-244.88430388 274.75275442 -248.37706966 273.23187781 -251.90673828 271.64257812 C-252.67026108 271.3030864 -253.43378387 270.96359467 -254.22044373 270.61381531 C-255.8361149 269.89413933 -257.4506819 269.17198005 -259.06420898 268.44750977 C-261.49283944 267.3575021 -263.92500979 266.27575053 -266.35791016 265.1953125 C-270.21044236 263.48099833 -274.04606686 261.73211214 -277.87756348 259.97137451 C-279.81810706 259.09573017 -281.77154953 258.26446141 -283.73583984 257.44384766 C-291.55678915 253.98740251 -291.55678915 253.98740251 -293.50439453 249.41992188 C-293.62939453 247.42529297 -293.62939453 247.42529297 -293.59033203 245.27929688 C-293.66577063 243.67252218 -293.74129678 242.06575159 -293.81689453 240.45898438 C-293.83655273 239.58983398 -293.85621094 238.72068359 -293.87646484 237.82519531 C-294.00586929 233.7539324 -294.36016636 229.70796769 -294.69726562 225.64941406 C-294.95110176 222.57656356 -295.18035175 219.50299391 -295.40283203 216.42773438 C-295.78551942 211.25378595 -296.21111288 206.08458702 -296.65037537 200.91514587 C-299.67869002 165.21073756 -301.8978997 129.4393964 -303.71533203 93.65429688 C-303.78017792 92.42152008 -303.8450238 91.18874329 -303.91183472 89.91860962 C-304.61213455 76.4857901 -305.09229353 63.06720619 -305.16845703 49.61523438 C-305.18052185 48.45980133 -305.19258667 47.30436829 -305.20501709 46.11392212 C-305.20398398 37.9408025 -304.30694013 30.08741259 -302.96533203 22.02929688 C-301.98973328 21.95634903 -301.01413452 21.88340118 -300.00897217 21.8082428 C-290.77092968 21.11742539 -281.5329276 20.42606981 -272.29496384 19.73420048 C-267.5467601 19.37860489 -262.7985428 19.02319249 -258.05029297 18.66821289 C-253.45963517 18.32500787 -248.86901502 17.98130318 -244.27841949 17.63726616 C-242.53554845 17.50673421 -240.79266439 17.37637596 -239.04976654 17.24620247 C-236.59027079 17.06247654 -234.13081387 16.87824526 -231.67138672 16.69360352 C-230.90717155 16.63624527 -230.14295639 16.57888702 -229.35558319 16.51979065 C-224.02360018 16.11663186 -218.69527725 15.67863602 -213.36877441 15.20800781 C-209.80642545 14.94312494 -206.28763 14.93372004 -202.71533203 14.96679688 C-201.43142578 14.97582031 -200.14751953 14.98484375 -198.82470703 14.99414062 C-197.40931641 15.01154297 -197.40931641 15.01154297 -195.96533203 15.02929688 C-194.65191823 22.36146132 -193.7846577 29.56970423 -193.39892578 37.00195312 C-193.35602417 37.77865356 -193.31312256 38.555354 -193.2689209 39.35559082 C-193.16487145 41.24667135 -193.06469286 43.1379642 -192.96533203 45.02929688 C-187.09348885 44.48069394 -181.22192072 43.92926171 -175.35058594 43.37524414 C-173.35456473 43.18729762 -171.35847147 43.0001147 -169.36230469 42.8137207 C-166.48759839 42.54515696 -163.61316527 42.27381816 -160.73876953 42.00195312 C-159.407173 41.87845238 -159.407173 41.87845238 -158.04867554 41.75245667 C-154.63713506 41.42767945 -151.27579556 41.08265471 -147.89697266 40.50195312 C-144.03302521 39.87898492 -140.19155201 39.68777082 -136.28564453 39.49414062 C-135.47288055 39.45116348 -134.66011658 39.40818634 -133.82272339 39.36390686 C-131.24541414 39.22835283 -128.66789116 39.09750425 -126.09033203 38.96679688 C-124.33510744 38.87531146 -122.57989888 38.78351783 -120.82470703 38.69140625 C-116.53842605 38.46713582 -112.25194717 38.24708305 -107.96533203 38.02929688 C-108.03099365 37.46706924 -108.09665527 36.90484161 -108.16430664 36.32557678 C-108.34549614 34.77414171 -108.52639236 33.22267237 -108.70703125 31.6711731 C-108.89443137 30.07187335 -109.08662695 28.47313318 -109.28173828 26.87475586 C-110.1251034 19.2518396 -110.05773691 11.68927593 -109.96533203 4.02929688 C-108.95857422 4.00424072 -107.95181641 3.97918457 -106.91455078 3.95336914 C-103.09741324 3.85756726 -99.28038686 3.7578048 -95.46337891 3.65698242 C-93.82668702 3.61427359 -92.18996853 3.57256974 -90.55322266 3.53198242 C-80.97196214 3.29362797 -71.43224456 2.90302724 -61.86865234 2.26342773 C-54.52375253 1.82286238 -47.16934323 1.66672859 -39.81445312 1.47705078 C-32.9980894 1.29788906 -26.20712777 1.07716516 -19.41064453 0.49804688 C-12.93475975 -0.01109465 -6.49380335 -0.02465197 0 0 Z " fill="#0465A8" transform="translate(660.96533203125,318.970703125)"/>
<path d="M0 0 C0.66 0.33 1.32 0.66 2 1 C1.02083333 2.04036458 0.04166667 3.08072917 -0.9375 4.12109375 C-1.89716675 5.14082275 -1.89716675 5.14082275 -2.8762207 6.18115234 C-4.30942902 7.70382291 -5.74286536 9.22627886 -7.17651367 10.74853516 C-10.86903644 14.66990505 -14.5582582 18.59423841 -18.23828125 22.52734375 C-24.87078412 29.60863889 -31.52177404 36.63952382 -38.47265625 43.41015625 C-40.46764288 45.45447794 -42.32660336 47.51864116 -44.18359375 49.68359375 C-49.33847666 55.62992779 -55.0144153 61.05897626 -60.6171875 66.578125 C-65.02488906 70.94563475 -69.25995436 75.36470996 -73.29785156 80.07519531 C-76.3278239 83.50151515 -79.61005624 86.67458082 -82.875 89.875 C-84.2080119 91.18257274 -85.53885616 92.49236015 -86.8671875 93.8046875 C-87.44581543 94.37171387 -88.02444336 94.93874023 -88.62060547 95.52294922 C-90.10372935 96.97110166 -90.10372935 96.97110166 -91 99 C-91.66 99 -92.32 99 -93 99 C-93.23178955 99.55848633 -93.4635791 100.11697266 -93.70239258 100.69238281 C-95.34019671 103.60499328 -97.37538715 105.58190794 -99.76171875 107.921875 C-100.46504082 108.61739471 -100.46504082 108.61739471 -101.18257141 109.32696533 C-102.67951598 110.80617025 -104.18295749 112.27852701 -105.6875 113.75 C-107.65321238 115.67879307 -109.61562208 117.6108564 -111.57421875 119.546875 C-112.28921036 120.25348267 -112.28921036 120.25348267 -113.01864624 120.97436523 C-116.29782915 124.239494 -119.3668805 127.62849242 -122.37036133 131.14550781 C-125.83229784 135.08511377 -129.64973907 138.68788878 -133.39453125 142.35546875 C-136.51342282 145.43561632 -139.51914144 148.54814038 -142.375 151.875 C-147.2576343 157.53753764 -152.64735456 162.69242005 -157.97265625 167.93359375 C-161.56177643 171.48814776 -165.09269897 175.03317107 -168.375 178.875 C-173.56691066 184.92318396 -179.35955694 190.4150624 -185.02978516 196.00927734 C-191.963662 202.8161357 -191.963662 202.8161357 -198.5 210 C-203.6384993 216.01444996 -209.40259394 221.45752246 -215.02978516 227.00927734 C-221.8618572 233.70043528 -221.8618572 233.70043528 -228.28125 240.78125 C-234.70454256 248.2995096 -242.01710074 255.06721611 -249.0390625 262.01855469 C-258.36061358 271.19898365 -258.36061358 271.19898365 -267.125 280.90234375 C-272.55355434 286.97553892 -278.53045209 292.5751614 -284.32080078 298.30029297 C-293.16783096 307.03115508 -293.16783096 307.03115508 -301.50097656 316.24755859 C-304.1025597 319.28895334 -306.84431944 322.18536042 -309.625 325.0625 C-310.1715625 325.65482422 -310.718125 326.24714844 -311.28125 326.85742188 C-315.29084927 330.97733308 -315.29084927 330.97733308 -318.56640625 331.08203125 C-321.38432046 329.82912236 -323.77482301 328.38378603 -326.3125 326.625 C-327.90384766 325.53251953 -327.90384766 325.53251953 -329.52734375 324.41796875 C-330.09308105 324.02399902 -330.65881836 323.6300293 -331.24169922 323.22412109 C-333.01145597 321.99202441 -334.78779564 320.77005613 -336.56640625 319.55078125 C-339.20346276 317.74251393 -341.83687837 315.92908532 -344.46875 314.11328125 C-347.72999319 311.86717994 -351.0026214 309.63861276 -354.28125 307.41796875 C-388.47004328 284.25218665 -421.19425428 259.05697004 -451.57617188 231.046875 C-454.36449611 228.48062969 -457.18126224 225.96118051 -460.0625 223.5 C-467.96170942 216.63756182 -475.32591018 209.05349461 -482 201 C-482.85464844 200.00742187 -483.70929688 199.01484375 -484.58984375 197.9921875 C-495.42120933 185.09591687 -502.9849858 171.16148341 -502 154 C-500.14587858 139.27827592 -490.82087345 128.45847694 -480 119 C-477.38732923 117.1073566 -474.83574349 115.55163323 -472 114 C-473.26835677 116.69525813 -474.66676726 118.97065696 -476.5 121.3125 C-481.32936484 128.06506323 -482.15755402 135.89712185 -481 144 C-473.08180106 164.49416197 -445.48595967 173.68082706 -427.06610107 181.85858154 C-409.89918437 189.41126312 -392.54160201 196.48221821 -375.046875 203.23828125 C-369.9209405 205.22578431 -364.8385601 207.30039292 -359.765625 209.41796875 C-357.70204292 210.27170418 -355.6379034 211.12407714 -353.57357788 211.97601318 C-352.24452437 212.52881909 -350.9179725 213.08768254 -349.59414673 213.65289307 C-347.75805406 214.4363215 -345.91238634 215.19719318 -344.06640625 215.95703125 C-343.01396729 216.40022705 -341.96152832 216.84342285 -340.87719727 217.30004883 C-336.659357 218.3261454 -334.55850482 216.87925066 -330.92626953 214.83007812 C-329.9147583 214.1871582 -329.9147583 214.1871582 -328.8828125 213.53125 C-327.73800415 212.80675659 -327.73800415 212.80675659 -326.57006836 212.06762695 C-325.7631958 211.55031006 -324.95632324 211.03299316 -324.125 210.5 C-323.27494385 209.95883545 -322.4248877 209.4176709 -321.54907227 208.86010742 C-316.05428942 205.34982404 -310.60501397 201.77718849 -305.19335938 198.14038086 C-298.87141239 193.89562134 -292.49956209 189.7276801 -286.125 185.5625 C-285.27207367 185.0051265 -285.27207367 185.0051265 -284.4019165 184.43649292 C-277.06434486 179.64276051 -269.7175298 174.86361532 -262.35351562 170.1105957 C-255.31128828 165.56292078 -248.29407598 160.97693828 -241.27856445 156.38818359 C-235.79604311 152.80659815 -230.28819609 149.26875091 -224.75927734 145.75927734 C-220.06809727 142.76824535 -215.40876463 139.72868761 -210.75 136.6875 C-209.74638428 136.03305908 -208.74276855 135.37861816 -207.70874023 134.7043457 C-202.13677381 131.06590307 -196.58568838 127.39947388 -191.0625 123.6875 C-185.44141994 119.91146592 -179.72585938 116.30855412 -173.9699707 112.7421875 C-168.88208284 109.57896367 -163.88713384 106.29547699 -158.91479492 102.9543457 C-151.1943238 97.77241262 -143.38300698 92.73061318 -135.58056641 87.67333984 C-131.38466464 84.95255359 -127.19251576 82.22599959 -123 79.5 C-121.34505941 78.4244679 -119.69011147 77.34894709 -118.03515625 76.2734375 C-114.58369458 74.03008871 -111.1333226 71.78507496 -107.68359375 69.5390625 C-100.07128512 64.5842721 -92.45732277 59.63524318 -84.78515625 54.7734375 C-76.30293 49.37241265 -67.87592742 43.88391777 -59.4609375 38.37890625 C-49.62249378 31.94384389 -39.76374671 25.5511066 -29.81030273 19.29516602 C-24.41200846 15.90008863 -19.04053868 12.46599627 -13.6875 9 C-12.99994629 8.55495117 -12.31239258 8.10990234 -11.60400391 7.65136719 C-7.71664284 5.12926199 -3.85007948 2.57865789 0 0 Z " fill="#4BAD2E" transform="translate(761,401)"/>
<path d="M0 0 C0.66 0.33 1.32 0.66 2 1 C-2.69998871 14.36800068 -2.69998871 14.36800068 -5.0625 20.0625 C-6.60988389 23.84085103 -7.83594678 27.64910707 -9 31.5625 C-10.10422527 35.24753084 -11.24422536 38.76607237 -12.875 42.25 C-17.07997554 51.23937685 -19.99939937 60.88757498 -23.0625 70.3125 C-24.68236588 75.2323406 -26.61950932 79.96137768 -28.65454102 84.72216797 C-29.96876662 87.92390866 -31.143459 91.14329082 -32.28515625 94.41015625 C-35.04155124 102.18714609 -38.00246747 109.87586161 -41 117.5625 C-41.7683342 119.53811219 -42.53612903 121.51393306 -43.30371094 123.48983765 C-43.80612249 124.78201576 -44.30936626 126.07387063 -44.81347656 127.36538696 C-46.02212812 130.46479593 -47.2134432 133.56850354 -48.3828125 136.68310547 C-49.02863281 138.40037842 -49.02863281 138.40037842 -49.6875 140.15234375 C-50.06261719 141.16159912 -50.43773437 142.17085449 -50.82421875 143.21069336 C-53.06093206 148.51684982 -55.5205136 151.72097459 -60.0625 155.25 C-63.7643085 158.18625124 -67.34201591 161.1688243 -70.8125 164.375 C-76.31328373 169.37492744 -82.13608991 173.91866382 -88.01367188 178.45947266 C-90.1054257 180.08176452 -92.18625789 181.71733548 -94.265625 183.35546875 C-104.6496802 191.51820138 -115.23131834 199.35326116 -126 207 C-126.72074707 207.51304687 -127.44149414 208.02609375 -128.18408203 208.5546875 C-133.10811933 212.05741049 -138.04758181 215.53752979 -143 219 C-143.59828613 219.41862305 -144.19657227 219.83724609 -144.81298828 220.26855469 C-171.66749208 239.00912459 -199.1594095 256.91818632 -226.82226562 274.43505859 C-227.67626953 274.97598145 -228.53027344 275.5169043 -229.41015625 276.07421875 C-230.20953613 276.5748584 -231.00891602 277.07549805 -231.83251953 277.59130859 C-233.73331871 278.82667819 -235.50691289 280.14750401 -237.30859375 281.51953125 C-238.19675781 282.00808594 -239.08492188 282.49664063 -240 283 C-243.47130315 281.91263389 -246.51420876 280.22978263 -249.64453125 278.3984375 C-250.48564453 277.90859375 -251.32675781 277.41875 -252.19335938 276.9140625 C-253.05767578 276.40617187 -253.92199219 275.89828125 -254.8125 275.375 C-255.69615234 274.859375 -256.57980469 274.34375 -257.49023438 273.8125 C-259.66194789 272.54468886 -261.8317818 271.27377652 -264 270 C-262.70722863 267.15268674 -261.35425174 265.11038088 -259.13012695 262.91894531 C-258.26331047 262.05719696 -258.26331047 262.05719696 -257.37898254 261.17803955 C-256.75505112 260.56756775 -256.13111969 259.95709595 -255.48828125 259.328125 C-254.51860664 258.36625275 -254.51860664 258.36625275 -253.52934265 257.38494873 C-251.46175974 255.33515238 -249.38763776 253.29214555 -247.3125 251.25 C-245.25603754 249.22133738 -243.20111681 247.1911744 -241.1492157 245.15789795 C-239.87423441 243.89497334 -238.59659246 242.6347266 -237.31575012 241.37774658 C-234.2936366 238.38888084 -231.39814956 235.35072039 -228.62573242 232.12792969 C-224.57734095 227.4413617 -220.21203084 223.10483692 -215.8125 218.75 C-214.95116455 217.89245117 -214.0898291 217.03490234 -213.20239258 216.15136719 C-209.54986017 212.51505061 -205.89136365 208.88475629 -202.23339844 205.25390625 C-199.54934844 202.58802403 -196.86836759 199.9190819 -194.1875 197.25 C-193.37063721 196.44143555 -192.55377441 195.63287109 -191.7121582 194.79980469 C-187.56223233 190.66750515 -183.60886321 186.4531489 -179.79003906 182.01489258 C-176.3729732 178.16859626 -172.68696731 174.58630781 -169.03125 170.96875 C-167.77254089 169.71572083 -167.77254089 169.71572083 -166.48840332 168.43737793 C-162.9314548 164.89663871 -159.3685388 161.36192676 -155.80615234 157.82666016 C-153.19159836 155.2302794 -150.58011816 152.63083434 -147.96875 150.03125 C-147.17376099 149.24455933 -146.37877197 148.45786865 -145.55969238 147.64733887 C-144.80200562 146.89295532 -144.04431885 146.13857178 -143.26367188 145.36132812 C-142.27941223 144.38492371 -142.27941223 144.38492371 -141.27526855 143.38879395 C-139.39257083 141.4121583 -137.6112807 139.40134606 -135.83276367 137.33276367 C-131.57607771 132.43994611 -127.00979548 127.88486367 -122.41210938 123.31445312 C-121.46655737 122.37082503 -120.52123629 121.4269655 -119.5761261 120.4828949 C-117.55546836 118.46537545 -115.53327355 116.44941449 -113.50984192 114.43467712 C-110.30369543 111.24216402 -107.10146587 108.04574082 -103.89978027 104.84875488 C-96.5260369 97.48700417 -89.14726757 90.13029783 -81.76844025 82.77364349 C-75.00025476 76.02569156 -68.23316211 69.27665301 -61.47012377 62.52354193 C-58.2939144 59.35228392 -55.1152908 56.18347273 -51.93473053 53.01657867 C-49.94977209 51.03913284 -47.96693557 49.05956942 -45.98464012 47.07945442 C-44.64111627 45.73866422 -43.29507359 44.40039942 -41.94892883 43.0622406 C-37.62515087 38.73883633 -33.44757583 34.35375615 -29.47486591 29.70436859 C-25.7942462 25.45101065 -21.7307654 21.54483707 -17.75512695 17.56982422 C-16.16783666 15.9803091 -14.58876447 14.38290343 -13.00976562 12.78515625 C-12.00048793 11.77295074 -10.99073996 10.76121389 -9.98046875 9.75 C-9.07192139 8.83734375 -8.16337402 7.9246875 -7.22729492 6.984375 C-5 5 -5 5 -3 5 C-2.690625 4.360625 -2.38125 3.72125 -2.0625 3.0625 C-1 1 -1 1 0 0 Z " fill="#06468E" transform="translate(732,469)"/>
<path d="M0 0 C0.33 0.33 0.66 0.66 1 1 C2.4790916 1.16733157 3.95827556 1.33384686 5.4375 1.5 C13.20405464 3.0132542 18.16216787 8.14820089 22.73828125 14.359375 C26.57971146 20.98178426 26.88761371 27.49473293 26 35 C24.875 38.75 24.875 38.75 23 42 C22.5978125 42.72832031 22.195625 43.45664063 21.78125 44.20703125 C18.32063496 50.00356144 14.18284355 54.1334089 8 57 C6.68 57 5.36 57 4 57 C4 65.58 4 74.16 4 83 C5.65 83.33 7.3 83.66 9 84 C19.04899759 88.3221495 26.39556225 95.3435957 34 103 C34.44988281 102.31035156 34.89976562 101.62070312 35.36328125 100.91015625 C45.8209691 85.63229164 60.05074884 76.93933364 78 73 C83.81765618 71.97271729 89.690744 71.37309918 95.5625 70.75 C97.09451742 70.57654568 98.62641966 70.40207086 100.15820312 70.2265625 C112.07190581 68.88887109 112.07190581 68.88887109 117 69 C117.11472656 68.26652344 117.22945312 67.53304687 117.34765625 66.77734375 C118.66814416 61.15538624 121.8831622 56.62651595 126.4453125 53.12109375 C134.40383089 48.1915637 141.55586991 46.77568514 150.8125 48.9375 C158.71435428 51.46271031 165.21045574 57.69904316 169 65 C171.21732947 71.65198842 170.89288513 78.90118499 168 85.25 C164.50565949 91.45887057 158.9915701 97.05554318 152.17578125 99.5625 C144.54752843 101.09636771 136.38603433 101.26765633 129.60546875 97.1328125 C129.07566406 96.75898438 128.54585937 96.38515625 128 96 C127.0925 95.38125 126.185 94.7625 125.25 94.125 C123 92 123 92 121.3671875 88.8984375 C119.21842418 85.62458199 119.21842418 85.62458199 115.3046875 85.34375 C113.82731669 85.36177699 112.35009873 85.41613572 110.875 85.5 C109.6849939 85.53830933 109.6849939 85.53830933 108.47094727 85.57739258 C105.97641217 85.6765637 103.49063129 85.82983874 101 86 C99.84781982 86.07033447 99.84781982 86.07033447 98.67236328 86.14208984 C83.42714013 87.1588768 67.83976822 89.67643562 56 100 C55.34644531 100.54527344 54.69289063 101.09054687 54.01953125 101.65234375 C48.46976729 106.68144755 45.34859997 112.9542001 43 120 C42.91518227 122.58630224 42.88401771 125.14478056 42.90234375 127.73046875 C42.9037587 128.48088943 42.90517365 129.23131012 42.90663147 130.00447083 C42.9122244 132.3988546 42.92477556 134.79314453 42.9375 137.1875 C42.94251592 138.81184761 42.94707866 140.43619668 42.95117188 142.06054688 C42.96219152 146.04040069 42.97945127 150.02018444 43 154 C38.38 154.33 33.76 154.66 29 155 C28.90203125 153.5253125 28.8040625 152.050625 28.703125 150.53125 C27.49020746 126.43081817 27.49020746 126.43081817 16 106 C13.95654488 104.51637747 11.87042653 103.09011281 9.75 101.71875 C8.67234375 101.01685547 7.5946875 100.31496094 6.484375 99.59179688 C5.66453125 99.06650391 4.8446875 98.54121094 4 98 C4.03029297 99.00039307 4.06058594 100.00078613 4.09179688 101.03149414 C4.66153319 120.02499795 5.17909664 138.99585644 5 158 C0.38 158.33 -4.24 158.66 -9 159 C-10.19492861 137.00051078 -10.10380245 115.02368532 -10 93 C-11.12567383 93.03029297 -12.25134766 93.06058594 -13.41113281 93.09179688 C-35.61175691 93.68316487 -57.78988253 94.18513178 -80 94 C-80.18755859 95.13115234 -80.18755859 95.13115234 -80.37890625 96.28515625 C-81.5472723 101.39216508 -84.27410712 104.76957876 -88.44921875 107.74609375 C-96.47094071 112.62939018 -102.58917646 113.77119575 -112 113 C-119.4084973 111.0678836 -125.25759699 105.13671465 -129.390625 98.90234375 C-132.906041 92.08194157 -133.38941689 84.629163 -131.1875 77.29296875 C-127.9756601 70.0328723 -122.52375841 63.879288 -115.11328125 60.80078125 C-107.25369637 58.77918163 -98.14219483 58.82189486 -91 63 C-85.62814889 66.6150193 -81.84391905 71.18110573 -79 77 C-79 77.66 -79 78.32 -79 79 C-78.4323291 78.96970703 -77.8646582 78.93941406 -77.27978516 78.90820312 C-55.18833884 77.78219331 -33.11331654 77.90603407 -11 78 C-11 71.07 -11 64.14 -11 57 C-12.98 56.67 -14.96 56.34 -17 56 C-25.46725508 50.5249328 -30.41841896 43.12765854 -32.5859375 33.359375 C-33.71449096 25.18363217 -32.05592173 18.71635384 -27.48046875 11.88671875 C-22.45418232 5.48118749 -16.42205177 1.83866499 -8.375 0.3125 C-5.5432877 0.05030442 -2.8379319 -0.16693717 0 0 Z " fill="#D6A01F" transform="translate(491,192)"/>
<path d="M0 0 C0 3 0 3 -1.8125 5.25 C-6.93137719 11.6851599 -8.48964541 18.76512197 -8.40234375 26.796875 C-7.42369066 34.58809379 -2.30620098 40.52572468 3.6640625 45.30859375 C33.72551934 67.07550147 72.51554202 79.39276537 106.87524414 92.7277832 C111.29947477 94.44547853 115.71352738 96.187293 120.125 97.9375 C121.28821777 98.38633545 122.45143555 98.8351709 123.64990234 99.29760742 C125.25019287 99.9372644 125.25019287 99.9372644 126.8828125 100.58984375 C127.82527832 100.95972412 128.76774414 101.32960449 129.73876953 101.71069336 C132.31049029 103.17703511 132.99293612 104.26184175 134 107 C127.92394185 111.60853563 121.73560185 115.87224136 115.25 119.875 C109.70083315 123.30297453 104.19200561 126.77876591 98.75 130.375 C98.1302832 130.77960449 97.51056641 131.18420898 96.87207031 131.60107422 C93.56461292 133.80085405 90.69480517 136.07840429 88 139 C92.2410351 144.10466407 96.78507519 148.83814245 101.5 153.5 C105.50546084 157.46553557 109.39445368 161.44620474 113.03515625 165.75390625 C114.75567985 167.72070758 116.51571515 169.62692231 118.30859375 171.52734375 C118.90414062 172.15970947 119.4996875 172.7920752 120.11328125 173.44360352 C121.31636074 174.71736715 122.52331729 175.98748153 123.734375 177.25366211 C128 181.77964508 128 181.77964508 128 184 C128.66 184 129.32 184 130 184 C131.41438406 185.57286684 132.75604401 187.21139996 134.0625 188.875 C138.51477171 194.44212626 143.20176404 199.7315195 148 205 C149.35973348 206.49495559 150.71438453 207.99455919 152.0625 209.5 C152.91521484 210.44359375 152.91521484 210.44359375 153.78515625 211.40625 C155 213 155 213 155 215 C155.66 215 156.32 215 157 215 C157 215.66 157 216.32 157 217 C152.78157708 216.43754361 150.16864067 215.03767175 146.6875 212.625 C145.62660156 211.89667969 144.56570313 211.16835938 143.47265625 210.41796875 C142.90691895 210.02399902 142.34118164 209.6300293 141.75830078 209.22412109 C139.98854403 207.99202441 138.21220436 206.77005613 136.43359375 205.55078125 C133.79653724 203.74251393 131.16312163 201.92908532 128.53125 200.11328125 C125.27000681 197.86717994 121.9973786 195.63861276 118.71875 193.41796875 C84.52995672 170.25218665 51.80574572 145.05697004 21.42382812 117.046875 C18.63550389 114.48062969 15.81873776 111.96118051 12.9375 109.5 C5.03829058 102.63756182 -2.32591018 95.05349461 -9 87 C-9.85464844 86.00742187 -10.70929688 85.01484375 -11.58984375 83.9921875 C-22.42120933 71.09591687 -29.9849858 57.16148341 -29 40 C-27.04905765 24.50951776 -16.59999096 12.64013121 -4.7421875 3.203125 C-3.19462943 2.08788072 -1.6034222 1.03331653 0 0 Z " fill="#2B931E" transform="translate(288,515)"/>
<path d="M0 0 C-3.2501926 3.38561729 -6.74938778 6.44149182 -10.29296875 9.51171875 C-11.2167898 10.31715541 -12.13334738 11.13334738 -13 12 C-13.11077389 14.79322084 -13.15313843 17.55406657 -13.140625 20.34765625 C-13.13806702 21.20110123 -13.13550903 22.0545462 -13.13287354 22.93385315 C-13.05849162 32.13187274 -12.45958121 41.26991789 -11.75 50.4375 C-11.68475128 51.31041687 -11.61950256 52.18333374 -11.55227661 53.08270264 C-10.43075562 68.0420646 -8.89012861 82.93457626 -7.16021729 97.83422852 C-7.03643707 98.90048462 -7.03643707 98.90048462 -6.91015625 99.98828125 C-6.78903473 101.03085083 -6.78903473 101.03085083 -6.66546631 102.09448242 C-5.45684863 112.59738569 -4.61503024 123.13393561 -3.79101562 133.67285156 C-2.72047707 147.30011981 -1.22359585 160.83809483 0.59130859 174.38452148 C1.79773483 183.58512122 2.52755966 192.73879111 3 202 C-3.80921343 200.05451045 -9.87817914 197.1868875 -16.15039062 193.95703125 C-16.80458984 193.62058594 -17.45878906 193.28414062 -18.1328125 192.9375 C-18.77516846 192.59952393 -19.41752441 192.26154785 -20.0793457 191.91333008 C-22.26019771 190.81999572 -22.26019771 190.81999572 -25.80078125 189.82421875 C-29.25292297 187.85578141 -29.5608097 187.48999079 -30.78515625 183.95703125 C-31.24088645 182.24990245 -31.66463156 180.53403405 -32.0625 178.8125 C-32.42118164 177.41777466 -32.42118164 177.41777466 -32.78710938 175.99487305 C-33.29305222 174.01155727 -33.78570768 172.02481203 -34.26611328 170.03515625 C-34.98115515 167.07793717 -35.732515 164.13251943 -36.49609375 161.1875 C-41.55054488 141.55410099 -46.05737375 121.78461986 -50.1875 101.9375 C-50.42533203 100.79772705 -50.66316406 99.6579541 -50.90820312 98.48364258 C-54.06051769 83.14039163 -56.5058948 67.89113598 -58.125 52.3125 C-58.37817552 49.9204028 -58.63303285 47.52849839 -58.88961792 45.13676453 C-59.0466334 43.66891904 -59.20151222 42.20084269 -59.35379028 40.73249817 C-59.67227343 37.71894886 -60.04402783 34.73895125 -60.5480957 31.75024414 C-61.13119819 28.20154102 -61.10764044 24.70845638 -61.0625 21.125 C-61.05798828 20.43664062 -61.05347656 19.74828125 -61.04882812 19.0390625 C-61.03716336 17.35933665 -61.01923271 15.67965625 -61 14 C-59.44152344 13.63648438 -59.44152344 13.63648438 -57.8515625 13.265625 C-56.44261372 12.92747729 -55.0337649 12.58891292 -53.625 12.25 C-52.94566406 12.09273438 -52.26632812 11.93546875 -51.56640625 11.7734375 C-47.59937369 10.80948566 -43.90191952 9.6021433 -40.1328125 8.02734375 C-34.94308486 5.88569416 -29.71800284 4.54299847 -24.25 3.3125 C-23.34378906 3.10044922 -22.43757813 2.88839844 -21.50390625 2.66992188 C-14.21830799 0.98413016 -7.48402856 -0.12903498 0 0 Z " fill="#043C84" transform="translate(347,363)"/>
<path d="M0 0 C16.90582686 -0.07832261 33.81162293 -0.12951392 50.71759015 -0.16530538 C56.12760415 -0.17730734 61.53757261 -0.19590812 66.94755876 -0.21680593 C73.61253679 -0.24221557 80.27743171 -0.25626518 86.94245976 -0.25639963 C90.39575073 -0.25670474 93.84885779 -0.26190755 97.30210626 -0.27980947 C101.08416363 -0.29673462 104.86576639 -0.295137 108.64784563 -0.28870535 C109.76604346 -0.29792391 110.88424129 -0.30714247 112.0363239 -0.31664038 C113.05334733 -0.31106745 114.07037075 -0.30549452 115.11821306 -0.29975271 C116.00058452 -0.30121927 116.88295599 -0.30268583 117.79206598 -0.30419683 C120.53575843 0.15136309 121.41405485 0.83140205 123.03212297 3.06773996 C123.53212297 6.50523996 123.53212297 6.50523996 123.03212297 10.06773996 C120.26454347 13.13740695 118.04620731 14.30742115 114.0050596 14.57110453 C112.38250447 14.59305724 110.75956195 14.59300338 109.13695085 14.57567453 C108.24049746 14.5819145 107.34404406 14.58815446 106.42042542 14.59458351 C103.41621211 14.61053997 100.41280716 14.59789885 97.40858781 14.58531809 C95.25510501 14.59073794 93.10162591 14.59785983 90.94815385 14.60655832 C85.09916918 14.62480856 79.25046641 14.61771756 73.40147674 14.60504198 C67.28629574 14.59492581 61.17113913 14.60430357 55.0559572 14.61058664 C44.78820266 14.61786596 34.52056317 14.60826666 24.25282609 14.58922434 C12.371053 14.56744356 0.48955432 14.57451471 -11.39221215 14.59652996 C-21.58508073 14.61466198 -31.77786655 14.61725338 -41.97074604 14.60677528 C-48.06241184 14.60052976 -54.15394849 14.59973405 -60.24560606 14.61292124 C-65.96990351 14.6244475 -71.69384583 14.61651294 -77.41810477 14.59334421 C-79.52284272 14.58804037 -81.62761039 14.58959933 -83.73233664 14.59839487 C-86.59752317 14.60926752 -89.46155967 14.59568744 -92.3266722 14.57567453 C-93.16664075 14.58459742 -94.0066093 14.59352031 -94.87203145 14.60271358 C-100.47567533 14.52638149 -100.47567533 14.52638149 -102.98060858 12.19224405 C-104.22549785 9.51336542 -104.47898877 7.9883785 -103.96787703 5.06773996 C-101.83199672 2.31266257 -100.63507968 1.19142787 -97.16836226 0.54875803 C-95.5274436 0.53543436 -95.5274436 0.53543436 -93.85337508 0.52184153 C-91.94725195 0.4922938 -91.94725195 0.4922938 -90.00262129 0.46214914 C-88.57827988 0.46047503 -87.15393791 0.45923117 -85.72959578 0.45836496 C-84.19866995 0.44305846 -82.66775974 0.42611901 -81.13686812 0.40770578 C-76.87830001 0.3622073 -72.61995353 0.34290173 -68.36117995 0.32871103 C-64.73361156 0.31400253 -61.10619452 0.28591115 -57.47870696 0.25806665 C-47.03449426 0.17884822 -36.59032064 0.13564104 -26.14586699 0.10410547 C-17.43052963 0.07746598 -8.71528008 0.04057699 0 0 Z " fill="#F4F8FB" transform="translate(510.9678770303726,412.9322600364685)"/>
<path d="M0 0 C1.82965553 -0.01691895 1.82965553 -0.01691895 3.6962738 -0.03417969 C5.04495477 -0.02640275 6.39363339 -0.01821009 7.74230957 -0.00964355 C9.16497006 -0.01506466 10.58762493 -0.02218726 12.01026917 -0.03088379 C15.87188793 -0.04912181 19.73307932 -0.0420479 23.59470558 -0.02936745 C27.63541442 -0.01924215 31.6760866 -0.02863181 35.71679688 -0.03491211 C42.50254895 -0.04218991 49.2881269 -0.03259743 56.07385254 -0.0135498 C63.91972861 0.00821931 71.76518891 0.00116802 79.6110549 -0.02085543 C86.34663499 -0.03900574 93.08208991 -0.04156959 99.81768656 -0.03110075 C103.8408836 -0.02486374 107.8638852 -0.02403574 111.8870697 -0.0372467 C115.66946823 -0.04879936 119.4513306 -0.04079087 123.23367119 -0.01766968 C124.62200976 -0.01237936 126.01039343 -0.01390198 127.39871407 -0.02272034 C129.29321815 -0.03364467 131.18782081 -0.01751815 133.08227539 0 C134.67287151 0.00226215 134.67287151 0.00226215 136.29560089 0.00457001 C139.7527971 0.63840965 140.96335457 1.71098364 143.0411377 4.50793457 C143.0411377 8.19645467 143.02633513 10.52193028 140.35148716 13.19896889 C137.41467831 14.86286522 135.44530135 14.88529553 132.07554626 14.8888855 C130.24372299 14.90157471 130.24372299 14.90157471 128.37489319 14.91452026 C127.02462635 14.9086876 125.67436083 14.90254311 124.32409668 14.89611816 C122.89981687 14.90018394 121.47554021 14.90552586 120.05126953 14.91204834 C116.18564711 14.92572591 112.32026487 14.9204219 108.45463824 14.91091108 C104.41079735 14.90331822 100.36697708 14.91035892 96.32313538 14.91506958 C89.5332164 14.9205276 82.74339532 14.91333367 75.95349121 14.89904785 C68.09970494 14.88271463 60.24615222 14.88801445 52.39237159 14.90452707 C45.65172748 14.91813281 38.91115374 14.92006628 32.17050034 14.91221106 C28.14345314 14.90753035 24.1165158 14.9069207 20.08947563 14.91682053 C16.30470445 14.92547494 12.52023504 14.91949655 8.73549652 14.90213776 C7.3451214 14.89816498 5.95472096 14.89932047 4.56435585 14.90592575 C2.66949484 14.9140991 0.77457845 14.90204156 -1.12025452 14.8888855 C-2.18157372 14.88775442 -3.24289293 14.88662334 -4.33637333 14.88545799 C-6.9588623 14.50793457 -6.9588623 14.50793457 -8.79643154 13.19896889 C-10.77984815 10.31361377 -10.3732115 7.88192086 -9.9588623 4.50793457 C-6.97672131 0.55993477 -4.85210233 0.00690068 0 0 Z " fill="#F5F9FB" transform="translate(417.9588623046875,461.4920654296875)"/>
<path d="M0 0 C0.71577713 -0.00525696 1.43155426 -0.01051392 2.16902161 -0.01593018 C4.53616126 -0.02913849 6.90262883 -0.02038866 9.26977539 -0.01025391 C10.91500477 -0.01227464 12.56023328 -0.01518607 14.20545959 -0.01895142 C17.65463788 -0.02337607 21.10358316 -0.01694014 24.55273438 -0.00292969 C28.97255762 0.014149 33.39183383 0.00433051 37.81163692 -0.01364708 C41.20972304 -0.02449267 44.60767969 -0.02103482 48.00576973 -0.0132637 C49.63525011 -0.01126313 51.26474227 -0.01371595 52.89420891 -0.02070236 C55.1732783 -0.02832827 57.45146502 -0.01669705 59.73046875 0 C61.67547523 0.00358017 61.67547523 0.00358017 63.65977478 0.00723267 C67.1196915 0.41028932 68.56592621 0.86077753 70.92993164 3.38818359 C71.48671248 7.21605185 71.65134531 9.39315511 69.34191895 12.57849121 C66.06368727 15.03811895 63.91549228 14.89559182 59.83813477 14.90576172 C58.77888039 14.91627563 58.77888039 14.91627563 57.69822693 14.92700195 C55.36880935 14.94457733 53.04061112 14.93296206 50.71118164 14.91943359 C49.08980069 14.92212867 47.46842132 14.92601122 45.8470459 14.93103027 C42.4508524 14.93692466 39.05508005 14.92836469 35.65893555 14.90966797 C31.30737029 14.88687798 26.95679182 14.90000145 22.60526276 14.92395782 C19.25775732 14.9384177 15.91048553 14.93380905 12.56297302 14.92344666 C10.95861189 14.92077987 9.35422948 14.92404748 7.74989319 14.93336487 C5.50660079 14.94353418 3.26490229 14.92802695 1.02172852 14.90576172 C-0.25416138 14.90257935 -1.53005127 14.89939697 -2.84460449 14.89611816 C-6.07006836 14.38818359 -6.07006836 14.38818359 -8.48596191 12.57849121 C-10.77375678 9.41520977 -10.5540417 7.19083127 -10.07006836 3.38818359 C-7.56677547 -0.51062901 -4.32299916 0.00796222 0 0 Z " fill="#F5F8FB" transform="translate(418.070068359375,510.61181640625)"/>
<path d="M0 0 C4.32519566 1.73153948 7.19183228 3.9714229 10.0625 7.625 C11.79370447 13.8573361 11.0856714 19.66163083 8.375 25.5 C4.54398213 29.53265039 0.86504924 30.83921989 -4.625 31.3125 C-9.84778407 30.82890888 -12.05747119 30.00828663 -15.6875 26.125 C-19.41443119 21.08860649 -20.55299313 18.41472033 -20 12 C-16.74610239 2.62111864 -9.77564446 -2.03150111 0 0 Z " fill="#FDFCF8" transform="translate(492,206)"/>
<path d="M0 0 C1.2757489 -0.00574036 1.2757489 -0.00574036 2.57727051 -0.01159668 C4.37265204 -0.01431458 6.16807324 -0.00696182 7.96337891 0.00976562 C10.70955793 0.03117833 13.45312097 0.00996129 16.19921875 -0.015625 C17.94531827 -0.0129817 19.69141616 -0.00785667 21.4375 0 C22.25738403 -0.00809692 23.07726807 -0.01619385 23.92199707 -0.02453613 C27.70715622 0.0376394 29.61662195 0.089814 32.73632812 2.37695312 C34.76682193 5.32772344 34.80358843 7.02221944 34.21875 10.53125 C32.57708022 12.91940368 31.28642676 14.3188644 28.37670898 14.89767456 C26.054161 15.04528116 23.76456374 15.05922897 21.4375 15.02734375 C20.58700073 15.02879898 19.73650146 15.03025421 18.86022949 15.03175354 C17.06482512 15.03009601 15.26940634 15.01855097 13.47412109 14.99780273 C10.7282263 14.96884992 7.98426301 14.97719576 5.23828125 14.99023438 C3.49217813 14.98399658 1.7460811 14.97560531 0 14.96484375 C-1.22982605 14.96924721 -1.22982605 14.96924721 -2.48449707 14.97373962 C-5.80086136 14.91893825 -8.33061524 14.76613769 -11.29882812 13.21899414 C-12.78125 11.53125 -12.78125 11.53125 -13.28125 8.09375 C-12.78125 4.53125 -12.78125 4.53125 -11.29882812 2.34179688 C-7.61612886 -0.30666101 -4.43346675 -0.04378356 0 0 Z " fill="#EDF6FA" transform="translate(600.78125,362.46875)"/>
<path d="M0 0 C5.50516382 4.60897436 5.50516382 4.60897436 6.0625 9.625 C5.5624972 14.45836037 4.32526275 17.7657775 0.6875 21.0625 C-3.32420699 23.44445102 -6.72696909 23.56624351 -11.3125 23.25 C-14.69649412 21.86563877 -16.04641502 20.63536445 -18.125 17.625 C-19.62451928 13.36320837 -20.06284589 9.71909307 -19.3125 5.25 C-14.88090155 -2.18875453 -7.61444842 -4.02272747 0 0 Z " fill="#FDFCF9" transform="translate(641.3125,255.75)"/>
<path d="M0 0 C4.12115342 1.55515223 6.91771273 3.05461359 9 7 C10.04546237 11.03249771 10.27586769 13.25951305 8.8125 17.1875 C6.31442737 21.06381959 4.42864827 23.52378391 0 25 C-4.25160217 25.40109454 -6.5006973 25.26378256 -10.3125 23.25 C-13.49697644 20.5839267 -14.72861859 18.73112772 -15.37109375 14.6328125 C-15.489301 10.1687503 -15.54314445 6.99264353 -12.625 3.4375 C-8.59057426 -0.30875248 -5.36993776 -0.55999351 0 0 Z " fill="#FCFBF7" transform="translate(389,266)"/>
<path d="M0 0 C0 38.61 0 77.22 0 117 C-1.98 117.99 -1.98 117.99 -4 119 C-4 118.34 -4 117.68 -4 117 C-3.34 117 -2.68 117 -2 117 C-2.07068632 116.39294251 -2.14137264 115.78588503 -2.21420097 115.16043186 C-2.87435419 109.11807417 -3.14374531 103.17846863 -3.12939453 97.10327148 C-3.13202301 95.70362152 -3.13202301 95.70362152 -3.13470459 94.2756958 C-3.13906743 91.22414226 -3.13620512 88.17264777 -3.1328125 85.12109375 C-3.13348708 82.98218271 -3.13445839 80.84327174 -3.13571167 78.70436096 C-3.13718105 74.23527288 -3.13505834 69.76620488 -3.13037109 65.29711914 C-3.12467082 59.5856463 -3.12795955 53.87422042 -3.13394356 48.16274929 C-3.13756674 43.75055084 -3.13640257 39.33836342 -3.13381577 34.92616463 C-3.13315154 32.8207505 -3.13395719 30.71533535 -3.13629532 28.60992241 C-3.13885114 25.66236614 -3.13494031 22.71488472 -3.12939453 19.76733398 C-3.13141876 18.90838028 -3.13344299 18.04942657 -3.13552856 17.16444397 C-3.11661669 11.70451881 -2.68520416 6.41789092 -2 1 C-2.64037201 1.06653778 -3.28074402 1.13307556 -3.94052124 1.20162964 C-25.61477858 3.41900293 -47.24037511 3.20608708 -69 3 C-69 2.67 -69 2.34 -69 2 C-68.10394043 1.97494385 -67.20788086 1.9498877 -66.28466797 1.92407227 C-62.88875785 1.82766462 -59.49294812 1.72853174 -56.09716797 1.62768555 C-54.6408183 1.58496468 -53.18443836 1.54326102 -51.72802734 1.50268555 C-44.59534331 1.30332481 -37.49479606 1.07123393 -30.3828125 0.46484375 C-20.27404054 -0.17163448 -10.12878942 0 0 0 Z " fill="#2098CD" transform="translate(672,319)"/>
<path d="M0 0 C3.39639947 0.58270422 5.02449516 1.65650338 7.42578125 4.09765625 C8.05371582 4.73002197 8.68165039 5.3623877 9.32861328 6.01391602 C9.9832959 6.68994873 10.63797852 7.36598145 11.3125 8.0625 C11.99038574 8.75206787 12.66827148 9.44163574 13.36669922 10.15209961 C17.06901823 13.93988429 20.69651141 17.76764946 24.10546875 21.82421875 C25.79760122 23.76755439 27.53278452 25.64554304 29.30078125 27.51953125 C29.89745605 28.1530249 30.49413086 28.78651855 31.10888672 29.43920898 C32.31363112 30.71456524 33.5222076 31.9863141 34.73486328 33.25415039 C39 37.7796915 39 37.7796915 39 40 C39.66 40 40.32 40 41 40 C42.54331236 41.67216576 44.01114909 43.41451538 45.4375 45.1875 C46.21996094 46.15042969 47.00242187 47.11335937 47.80859375 48.10546875 C49.74371583 50.66148562 51.41731692 53.21630982 53 56 C49.26077871 54.4186938 46.70350263 52.06769602 43.75 49.3125 C40.490778 46.28666109 37.21244321 43.3055709 33.8125 40.4375 C30.13919354 37.25346592 26.98181991 33.72369131 23.80078125 30.0546875 C22.4244823 28.48433339 20.97651801 26.97651801 19.5 25.5 C17.21179264 23.21179264 14.99822662 20.88585598 12.8125 18.5 C12.13832031 17.7678125 11.46414063 17.035625 10.76953125 16.28125 C9 14 9 14 7.94921875 11.28125 C7.63597656 10.5284375 7.32273437 9.775625 7 9 C6.01 8.67 5.02 8.34 4 8 C0 2.62857143 0 2.62857143 0 0 Z " fill="#297A20" transform="translate(377,659)"/>
<path d="M0 0 C0.33 0 0.66 0 1 0 C0.98839844 0.61101562 0.97679687 1.22203125 0.96484375 1.8515625 C0.93147932 5.2356688 0.95999121 8.61592281 1 12 C1.00580078 12.67144043 1.01160156 13.34288086 1.01757812 14.03466797 C1.23876413 30.25866121 3.30621304 46.30059157 5.2722168 62.38500977 C5.44075668 63.77157776 5.44075668 63.77157776 5.61270142 65.18615723 C5.82650939 66.93767155 6.04321212 68.68883577 6.26327515 70.4395752 C6.73891111 74.31881882 7.13431359 78.0821072 7 82 C6.34 81.34 5.68 80.68 5 80 C5 86.27 5 92.54 5 99 C4.34 98.67 3.68 98.34 3 98 C1.84720346 90.57525001 1.61802234 83.04861014 1.24609375 75.55078125 C1.18092056 74.26173386 1.11574738 72.97268646 1.04859924 71.64457703 C0.91137921 68.91898819 0.77640999 66.19329846 0.64282227 63.4675293 C0.5079166 60.72057926 0.36924819 57.97386441 0.22680664 55.22729492 C-0.46057134 41.96208601 -1.12514775 28.70395771 -1.15234375 15.41796875 C-1.15528946 14.53941727 -1.15823517 13.66086578 -1.16127014 12.75569153 C-1.13806569 8.39387813 -0.87337217 4.29382624 0 0 Z " fill="#144E91" transform="translate(357,356)"/>
<path d="M0 0 C2.3370835 3.50562525 2.66700372 6.48849615 3.125 10.5625 C3.20991699 11.27470703 3.29483398 11.98691406 3.38232422 12.72070312 C3.99379838 18.15876311 4.23678599 23.52761257 4 29 C3.01 29 2.02 29 1 29 C-0.19148936 9.65957447 -0.19148936 9.65957447 0 0 Z " fill="#02418B" transform="translate(358,395)"/>
<path d="M0 0 C0 4.93606539 -3.73395362 7.53727565 -7 11 C-7.76828125 11.82113281 -8.5365625 12.64226563 -9.328125 13.48828125 C-15.70365656 20.10658967 -15.70365656 20.10658967 -20 21 C-15.76183463 15.93376232 -11.32591037 11.19961931 -6.625 6.5625 C-5.98433594 5.92634766 -5.34367188 5.29019531 -4.68359375 4.63476562 C-3.12469121 3.08749668 -1.56348584 1.54263508 0 0 Z " fill="#204486" transform="translate(568,635)"/>
<path d="M0 0 C0.33 0 0.66 0 1 0 C1.06058594 1.07378906 1.12117188 2.14757812 1.18359375 3.25390625 C1.26807651 4.69011315 1.35272054 6.12631058 1.4375 7.5625 C1.47681641 8.26697266 1.51613281 8.97144531 1.55664062 9.69726562 C1.75432619 12.9970939 2.03010698 16.19658089 2.53125 19.46875 C3.08726452 23.65739268 3.10948545 27.71965204 3.0625 31.9375 C3.05798828 32.71673828 3.05347656 33.49597656 3.04882812 34.29882812 C3.03716908 36.19925268 3.01923877 38.09963706 3 40 C2.67 40 2.34 40 2 40 C-0.42291291 26.69561212 -0.20801332 13.48086352 0 0 Z " fill="#14367D" transform="translate(363,479)"/>
<path d="M0 0 C2.68688218 2.68688218 2.35623179 4.31017402 2.5625 8.0625 C2.97230784 14.57628774 3.45672138 21.01196758 4.625 27.4375 C5 30 5 30 4 32 C3.34 32 2.68 32 2 32 C1.34 21.44 0.68 10.88 0 0 Z " fill="#152F70" transform="translate(366,534)"/>
<path d="M0 0 C0 3 0 3 -1.8125 5.25 C-4.26545921 8.33372015 -5.51902973 11.36489115 -7 15 C-7.66 15.99 -8.32 16.98 -9 18 C-10.33506224 10.28630705 -10.33506224 10.28630705 -9 7 C-6.93359375 5.078125 -6.93359375 5.078125 -4.4375 3.25 C-3.61121094 2.63640625 -2.78492188 2.0228125 -1.93359375 1.390625 C-1.29550781 0.93171875 -0.65742188 0.4728125 0 0 Z M-7 7 C-7.33 7.66 -7.66 8.32 -8 9 C-7.34 9 -6.68 9 -6 9 C-6.33 8.34 -6.66 7.68 -7 7 Z " fill="#35A53E" transform="translate(288,515)"/>
<path d="M0 0 C0 3 0 3 -1.7578125 5.015625 C-2.53898438 5.75296875 -3.32015625 6.4903125 -4.125 7.25 C-8.01000037 10.99997666 -11.55352473 14.84655545 -15 19 C-15.66 18.34 -16.32 17.68 -17 17 C-11.39 11.39 -5.78 5.78 0 0 Z " fill="#36629D" transform="translate(715,486)"/>
<path d="M0 0 C0.33 0 0.66 0 1 0 C1.33502501 3.12482108 1.66773199 6.24988466 2 9.375 C2.09539063 10.26445312 2.19078125 11.15390625 2.2890625 12.0703125 C2.42441406 13.34648437 2.42441406 13.34648437 2.5625 14.6484375 C2.64628906 15.43395996 2.73007812 16.21948242 2.81640625 17.02880859 C3 19 3 19 3 21 C4.32 21.66 5.64 22.32 7 23 C5.02 23.33 3.04 23.66 1 24 C0.28586721 15.97875848 -0.14525497 8.05358138 0 0 Z " fill="#CB9218" transform="translate(519,323)"/>
<path d="M0 0 C0.33 0.66 0.66 1.32 1 2 C0.34 1.67 -0.32 1.34 -1 1 C-0.67 0.67 -0.34 0.34 0 0 Z M-4 2 C-3.01 2.33 -2.02 2.66 -1 3 C-4.63 6.63 -8.26 10.26 -12 14 C-12.33 13.34 -12.66 12.68 -13 12 C-11.8758824 10.70756532 -10.75067408 9.41607925 -9.625 8.125 C-8.99851562 7.40570312 -8.37203125 6.68640625 -7.7265625 5.9453125 C-6.52573166 4.5923402 -5.2791655 3.2791655 -4 2 Z " fill="#1A9024" transform="translate(281,522)"/>
<path d="M0 0 C0.66 0 1.32 0 2 0 C0.46356148 3.68069887 -1.78150945 5.98775204 -4.625 8.75 C-5.85089844 9.94882812 -5.85089844 9.94882812 -7.1015625 11.171875 C-7.72804688 11.77515625 -8.35453125 12.3784375 -9 13 C-9 9.06830895 -7.60580385 7.83572772 -5 5 C-4.34 5 -3.68 5 -3 5 C-2.67 4.01 -2.34 3.02 -2 2 C-1.34 2 -0.68 2 0 2 C0 1.34 0 0.68 0 0 Z " fill="#1C942A" transform="translate(659,507)"/>
<path d="M0 0 C0.33 0 0.66 0 1 0 C1.33 4.29 1.66 8.58 2 13 C3.32 13.33 4.64 13.66 6 14 C4.02 14.33 2.04 14.66 0 15 C0 10.05 0 5.1 0 0 Z " fill="#C88F1E" transform="translate(482,336)"/>
<path d="M0 0 C0.66 0.33 1.32 0.66 2 1 C0.88200014 2.33920838 -0.24461897 3.67122556 -1.375 5 C-2.00148438 5.7425 -2.62796875 6.485 -3.2734375 7.25 C-4.12808594 8.11625 -4.12808594 8.11625 -5 9 C-5.66 9 -6.32 9 -7 9 C-6.875 6.75 -6.875 6.75 -6 4 C-2.9375 1.6875 -2.9375 1.6875 0 0 Z " fill="#1C912B" transform="translate(761,401)"/>
<path d="M0 0 C0 3.39593478 -0.52165948 4.06619881 -2.5 6.6875 C-2.9640625 7.31011719 -3.428125 7.93273437 -3.90625 8.57421875 C-4.2671875 9.04472656 -4.628125 9.51523437 -5 10 C-5.66 9.34 -6.32 8.68 -7 8 C-4.69 5.36 -2.38 2.72 0 0 Z " fill="#035396" transform="translate(424,395)"/>
<path d="M0 0 C2 1.375 2 1.375 4 3 C4 3.66 4 4.32 4 5 C4.66 5 5.32 5 6 5 C6 5.66 6 6.32 6 7 C3.625 6.6875 3.625 6.6875 1 6 C0.34 5.01 -0.32 4.02 -1 3 C-0.67 2.01 -0.34 1.02 0 0 Z " fill="#328F24" transform="translate(439,725)"/>
<path d="M0 0 C0.66 0.33 1.32 0.66 2 1 C-3.625 5.875 -3.625 5.875 -7 7 C-5.55609075 3.19333016 -3.65047197 1.73397418 0 0 Z " fill="#229B2F" transform="translate(576,521)"/>
<path d="M0 0 C0.66 0 1.32 0 2 0 C1.34 2.97 0.68 5.94 0 9 C-2 5 -2 5 -1.6875 2.8125 C-1 1 -1 1 0 0 Z " fill="#299F31" transform="translate(280,524)"/>
<path d="M0 0 C0.66 0 1.32 0 2 0 C1.55090939 1.48199902 1.09043436 2.96055236 0.625 4.4375 C0.36976563 5.26121094 0.11453125 6.08492187 -0.1484375 6.93359375 C-1 9 -1 9 -3 10 C-2.69201674 8.51988629 -2.378482 7.04092675 -2.0625 5.5625 C-1.88847656 4.73878906 -1.71445312 3.91507813 -1.53515625 3.06640625 C-1 1 -1 1 0 0 Z " fill="#1461A9" transform="translate(690,582)"/>
<path d="M0 0 C0.66 0 1.32 0 2 0 C2.33 2.64 2.66 5.28 3 8 C1.68 7.67 0.36 7.34 -1 7 C-0.67 4.69 -0.34 2.38 0 0 Z " fill="#092472" transform="translate(347,557)"/>
<path d="M0 0 C-0.33 0.99 -0.66 1.98 -1 3 C-3.64 2.67 -6.28 2.34 -9 2 C-5.86501708 0.14223235 -3.62528568 -0.20140476 0 0 Z " fill="#DEAD2D" transform="translate(600,262)"/>
<path d="M0 0 C0.66 0.66 1.32 1.32 2 2 C1.34 4.31 0.68 6.62 0 9 C-2 6 -2 6 -1.6875 3.375 C-1 1 -1 1 0 0 Z " fill="#115FA9" transform="translate(729,475)"/>
</svg>
